<svg width="24" height="24" viewBox="0 0 24 24" fill="none" xmlns="http://www.w3.org/2000/svg">
<path fill-rule="evenodd" clip-rule="evenodd" d="M11.6477 1.42992C11.8803 1.38208 12.1202 1.38208 12.3528 1.42992C12.6198 1.48485 12.8602 1.61912 13.0852 1.74479C13.1041 1.75532 13.1228 1.76579 13.1415 1.77615L20.5415 5.88726C20.5612 5.89823 20.5811 5.90922 20.6011 5.92028C20.8391 6.05171 21.0931 6.19208 21.2871 6.40257C21.4559 6.58577 21.5837 6.80291 21.6619 7.03948C21.7517 7.31125 21.751 7.60153 21.7503 7.87334C21.7503 7.89621 21.7502 7.91894 21.7502 7.94153V16.0586C21.7502 16.0812 21.7503 16.104 21.7503 16.1268C21.751 16.3986 21.7517 16.6889 21.6619 16.9607C21.5837 17.1973 21.4559 17.4144 21.2871 17.5976C21.0931 17.8081 20.8391 17.9485 20.6011 18.0799C20.5811 18.091 20.5612 18.1019 20.5415 18.1129L13.1415 22.224C13.1228 22.2344 13.1041 22.2448 13.0852 22.2554C12.8602 22.381 12.6198 22.5153 12.3528 22.5702C12.1202 22.6181 11.8803 22.6181 11.6477 22.5702C11.3806 22.5153 11.1402 22.3811 10.9152 22.2554C10.8964 22.2449 10.8776 22.2344 10.859 22.224L3.45896 18.1129C3.43922 18.1019 3.41932 18.0909 3.3993 18.0799C3.16138 17.9485 2.9073 17.8081 2.71333 17.5976C2.5445 17.4144 2.41673 17.1973 2.33857 16.9607C2.24877 16.6889 2.24946 16.3986 2.25011 16.1268C2.25017 16.104 2.25022 16.0812 2.25022 16.0586V7.94153C2.25022 7.91895 2.25017 7.89621 2.25011 7.87335C2.24946 7.60154 2.24877 7.31126 2.33857 7.03948C2.41673 6.80292 2.54449 6.58577 2.71333 6.40257C2.9073 6.19208 3.16138 6.05171 3.39931 5.92027C3.41932 5.90922 3.43922 5.89823 3.45896 5.88726L10.859 1.77615C10.8776 1.76579 10.8964 1.75532 10.9152 1.74479C11.1402 1.61912 11.3806 1.48485 11.6477 1.42992ZM11.8868 2.92618C11.8211 2.95787 11.7365 3.00455 11.5874 3.08738L4.18742 7.1985C4.03002 7.28594 3.94069 7.33593 3.87559 7.3774C3.83545 7.40298 3.82 7.41585 3.81604 7.41944M3.763 7.50958C3.76178 7.51478 3.75803 7.53454 3.75517 7.58205C3.75053 7.6591 3.75022 7.76146 3.75022 7.94153V16.0586C3.75022 16.2387 3.75053 16.3411 3.75517 16.4181C3.75803 16.4656 3.76178 16.4854 3.763 16.4906C3.77412 16.524 3.7922 16.5548 3.81604 16.5807C3.82 16.5843 3.83546 16.5972 3.87559 16.6228C3.94069 16.6642 4.03002 16.7142 4.18742 16.8017L11.5874 20.9128C11.7365 20.9956 11.8211 21.0423 11.8868 21.074C11.9274 21.0936 11.9454 21.0997 11.9502 21.1011C11.9832 21.1078 12.0172 21.1078 12.0502 21.1011C12.055 21.0997 12.073 21.0935 12.1136 21.074C12.1793 21.0423 12.2639 20.9956 12.413 20.9128L19.813 16.8017C19.9704 16.7142 20.0597 16.6642 20.1248 16.6228C20.165 16.5972 20.1804 16.5843 20.1844 16.5807C20.2082 16.5548 20.2263 16.524 20.2374 16.4906C20.2387 16.4854 20.2424 16.4656 20.2453 16.4181C20.2499 16.3411 20.2502 16.2387 20.2502 16.0586V7.94153C20.2502 7.76146 20.2499 7.6591 20.2453 7.58205C20.2424 7.53455 20.2387 7.51479 20.2374 7.50959C20.2263 7.47614 20.2082 7.44541 20.1844 7.41944C20.1804 7.41585 20.165 7.40298 20.1248 7.3774C20.0597 7.33593 19.9704 7.28594 19.813 7.1985L12.413 3.08738C12.2639 3.00455 12.1793 2.95787 12.1136 2.92619C12.073 2.90662 12.055 2.90052 12.0502 2.89909M20.1855 7.4205C20.1854 7.42047 20.185 7.42012 20.1844 7.41947C20.1852 7.4202 20.1855 7.42053 20.1855 7.4205ZM3.81494 16.5797C3.81497 16.5797 3.81537 16.58 3.81601 16.5807C3.81523 16.58 3.81491 16.5797 3.81494 16.5797ZM3.7634 7.50811C3.7634 7.50815 3.76328 7.50866 3.76301 7.50954L3.7634 7.50811ZM11.8868 2.92618C11.9274 2.90662 11.9454 2.90052 11.9502 2.89909L11.8868 2.92618ZM11.9516 2.89873C11.9516 2.89876 11.9511 2.8989 11.9502 2.89909L11.9516 2.89873ZM12.0002 7.25008C12.4144 7.25008 12.7502 7.58587 12.7502 8.00008V12.0001C12.7502 12.4143 12.4144 12.7501 12.0002 12.7501C11.586 12.7501 11.2502 12.4143 11.2502 12.0001V8.00008C11.2502 7.58587 11.586 7.25008 12.0002 7.25008ZM11.2502 16.0001C11.2502 15.5859 11.586 15.2501 12.0002 15.2501H12.0102C12.4244 15.2501 12.7602 15.5859 12.7602 16.0001C12.7602 16.4143 12.4244 16.7501 12.0102 16.7501H12.0002C11.586 16.7501 11.2502 16.4143 11.2502 16.0001Z" fill="#6C6C72"/>
</svg>
