<svg width="24" height="24" viewBox="0 0 24 24" fill="none" xmlns="http://www.w3.org/2000/svg">
<path fill-rule="evenodd" clip-rule="evenodd" d="M13.9957 3.76114C13.8666 3.75059 13.6924 3.75 13.4 3.75L10.6 3.75C10.3076 3.75 10.1334 3.75059 10.0043 3.76114C9.92547 3.76758 9.89234 3.77607 9.88346 3.77883C9.83883 3.80235 9.80235 3.83883 9.77883 3.88347C9.77607 3.89234 9.76757 3.92547 9.76114 4.00428C9.75059 4.13341 9.75 4.3076 9.75 4.6V6.99909C9.75 6.99878 9.75 6.99939 9.75 6.99909C9.75 6.99939 9.75 7.00061 9.75 7.00092L9.75 20.25H14.25V4.6C14.25 4.3076 14.2494 4.1334 14.2389 4.00428C14.2324 3.92547 14.2239 3.89235 14.2212 3.88347C14.1977 3.83883 14.1612 3.80235 14.1165 3.77883C14.1077 3.77607 14.0745 3.76757 13.9957 3.76114ZM14.1191 3.77973C14.1191 3.77974 14.1186 3.77956 14.1176 3.77918L14.1191 3.77973ZM14.2203 3.88088C14.2203 3.88085 14.2205 3.88132 14.2208 3.88236L14.2203 3.88088ZM15.75 10.25L15.75 4.57377C15.75 4.31629 15.75 4.07981 15.7339 3.88213C15.7165 3.669 15.6766 3.43583 15.5593 3.20552C15.3915 2.87623 15.1238 2.60852 14.7945 2.44074C14.5642 2.32339 14.331 2.28353 14.1179 2.26612C13.9202 2.24997 13.6837 2.24998 13.4262 2.25L10.5738 2.25C10.3163 2.24998 10.0798 2.24997 9.88213 2.26612C9.669 2.28353 9.43583 2.32339 9.20552 2.44074C8.87624 2.60852 8.60852 2.87624 8.44074 3.20552C8.32339 3.43583 8.28353 3.669 8.26612 3.88213C8.24997 4.07982 8.24998 4.3163 8.25 4.57379L8.25 6.25H4.6C4.59124 6.25 4.5825 6.25 4.57378 6.25C4.3163 6.24998 4.07982 6.24997 3.88213 6.26612C3.669 6.28353 3.43583 6.32339 3.20552 6.44074C2.87624 6.60852 2.60852 6.87624 2.44074 7.20552C2.32339 7.43583 2.28353 7.669 2.26612 7.88213C2.24997 8.07982 2.24998 8.3163 2.25 8.57379V19.4262C2.24998 19.6837 2.24997 19.9202 2.26612 20.1179C2.28353 20.331 2.32339 20.5642 2.44074 20.7945C2.60852 21.1238 2.87624 21.3915 3.20552 21.5593C3.43583 21.6766 3.669 21.7165 3.88213 21.7339C4.07981 21.75 4.31629 21.75 4.57377 21.75H19.4262C19.6837 21.75 19.9202 21.75 20.1179 21.7339C20.331 21.7165 20.5642 21.6766 20.7945 21.5593C21.1238 21.3915 21.3915 21.1238 21.5593 20.7945C21.6766 20.5642 21.7165 20.331 21.7339 20.1179C21.75 19.9202 21.75 19.6837 21.75 19.4262V12.5738C21.75 12.3163 21.75 12.0798 21.7339 11.8821C21.7165 11.669 21.6766 11.4358 21.5593 11.2055C21.3915 10.8762 21.1238 10.6085 20.7945 10.4407C20.5642 10.3234 20.331 10.2835 20.1179 10.2661C19.9202 10.25 19.6837 10.25 19.4262 10.25L15.75 10.25ZM15.75 11.75V20.25H19.4C19.6924 20.25 19.8666 20.2494 19.9957 20.2389C20.0746 20.2324 20.1077 20.2239 20.1165 20.2212C20.1612 20.1977 20.1977 20.1612 20.2212 20.1165C20.2239 20.1077 20.2324 20.0745 20.2389 19.9957C20.2494 19.8666 20.25 19.6924 20.25 19.4V12.6C20.25 12.3076 20.2494 12.1334 20.2389 12.0043C20.2324 11.9255 20.2239 11.8923 20.2212 11.8835C20.1977 11.8388 20.1612 11.8023 20.1165 11.7788C20.1076 11.7761 20.0745 11.7676 19.9957 11.7611C19.8666 11.7506 19.6924 11.75 19.4 11.75H15.75ZM20.1191 11.7797C20.1191 11.7797 20.1185 11.7796 20.1176 11.7792L20.1191 11.7797ZM20.2203 11.8809C20.2203 11.8808 20.2205 11.8813 20.2208 11.8824L20.2203 11.8809ZM20.1191 20.2203C20.1192 20.2203 20.1187 20.2205 20.1176 20.2208L20.1191 20.2203ZM8.25 7.75L8.25 20.25H4.6C4.3076 20.25 4.13341 20.2494 4.00428 20.2389C3.92545 20.2324 3.89233 20.2239 3.88346 20.2212C3.83882 20.1977 3.80234 20.1612 3.77883 20.1165C3.77607 20.1077 3.76757 20.0745 3.76114 19.9957C3.75059 19.8666 3.75 19.6924 3.75 19.4V8.6C3.75 8.3076 3.75059 8.13341 3.76114 8.00428C3.76757 7.92547 3.77607 7.89234 3.77883 7.88346C3.80235 7.83883 3.83882 7.80235 3.88346 7.77883C3.89234 7.77607 3.92547 7.76757 4.00428 7.76114C4.13341 7.75059 4.3076 7.75 4.6 7.75H8.25ZM3.88088 7.77973C3.88085 7.77972 3.88132 7.77953 3.88236 7.77918L3.88088 7.77973ZM3.77973 7.88088C3.77974 7.88091 3.77956 7.88143 3.77918 7.88236L3.77973 7.88088ZM3.77973 20.1191C3.77972 20.1192 3.77953 20.1187 3.77918 20.1176L3.77973 20.1191ZM3.88088 20.2203C3.88091 20.2203 3.88142 20.2204 3.88234 20.2208L3.88088 20.2203ZM9.77918 3.88236C9.77952 3.88132 9.77972 3.88085 9.77973 3.88088L9.77918 3.88236ZM9.88088 3.77973C9.88085 3.77972 9.88132 3.77953 9.88236 3.77918L9.88088 3.77973Z" fill="#6C6C72"/>
</svg>
