<svg width="24" height="24" viewBox="0 0 24 24" fill="none" xmlns="http://www.w3.org/2000/svg">
<path fill-rule="evenodd" clip-rule="evenodd" d="M6 3.25C6.41421 3.25 6.75 3.58579 6.75 4V20C6.75 20.4142 6.41421 20.75 6 20.75C5.58579 20.75 5.25 20.4142 5.25 20V4C5.25 3.58579 5.58579 3.25 6 3.25ZM12 9.25C12.4142 9.25 12.75 9.58579 12.75 10V20C12.75 20.4142 12.4142 20.75 12 20.75C11.5858 20.75 11.25 20.4142 11.25 20V10C11.25 9.58579 11.5858 9.25 12 9.25ZM18 15.25C18.4142 15.25 18.75 15.5858 18.75 16V20C18.75 20.4142 18.4142 20.75 18 20.75C17.5858 20.75 17.25 20.4142 17.25 20V16C17.25 15.5858 17.5858 15.25 18 15.25Z" fill="#6C6C72"/>
</svg>
