<svg width="24" height="24" viewBox="0 0 24 24" fill="none" xmlns="http://www.w3.org/2000/svg">
<path fill-rule="evenodd" clip-rule="evenodd" d="M8.2122 2.41292C9.32201 1.66053 10.6398 1.25 12 1.25C13.7902 1.25 15.5071 1.96116 16.773 3.22703C18.0388 4.4929 18.75 6.20979 18.75 8C18.75 10.036 19.0118 11.6144 19.3677 12.8201C19.485 13.2173 19.258 13.6344 18.8608 13.7517C18.4635 13.869 18.0464 13.642 17.9291 13.2448C17.5286 11.8881 17.25 10.1655 17.25 8C17.25 6.60761 16.6969 5.27225 15.7123 4.28769C14.7277 3.30312 13.3924 2.75 12 2.75C10.9421 2.75 9.91716 3.06927 9.05392 3.6545C8.71106 3.88693 8.2447 3.79742 8.01227 3.45457C7.77983 3.11172 7.86935 2.64536 8.2122 2.41292ZM2.46967 2.46967C2.76256 2.17678 3.23744 2.17678 3.53033 2.46967L6.75835 5.69769C6.77916 5.71629 6.79883 5.73599 6.81732 5.75666L17.5297 16.469C17.5301 16.4695 17.5305 16.4699 17.531 16.4703L21.5303 20.4697C21.8232 20.7626 21.8232 21.2374 21.5303 21.5303C21.2374 21.8232 20.7626 21.8232 20.4697 21.5303L16.6893 17.75H5.36978C4.78776 17.75 4.3276 17.75 3.99726 17.7371C3.83124 17.7307 3.67464 17.7202 3.54072 17.7004C3.44896 17.6868 3.21395 17.6516 3.01495 17.5039C2.9139 17.429 2.76451 17.3074 2.65643 17.1129C2.54834 16.9183 2.52408 16.7273 2.51382 16.6019C2.50091 16.4441 2.53528 16.3119 2.55531 16.2446C2.57892 16.1653 2.60991 16.09 2.63951 16.0248C2.69878 15.8943 2.78088 15.7431 2.87519 15.5795C3.06349 15.2528 3.34416 14.8017 3.70379 14.2238L3.71288 14.2092C4.50611 12.9344 5.25 10.957 5.25 8C5.25 7.48539 5.30877 6.97681 5.42259 6.48325L2.46967 3.53033C2.17678 3.23744 2.17678 2.76256 2.46967 2.46967ZM6.75329 7.81395C6.7511 7.87584 6.75 7.93786 6.75 8C6.75 11.2233 5.93483 13.4775 4.98645 15.0016C4.64945 15.5432 4.39802 15.9475 4.22435 16.2434C4.50919 16.2499 4.88961 16.25 5.38885 16.25H15.1893L6.75329 7.81395ZM3.72487 16.2096C3.72529 16.2094 3.73144 16.2105 3.74201 16.2136C3.72973 16.2113 3.72444 16.2098 3.72487 16.2096ZM10 21.75C9.58579 21.75 9.25 21.4142 9.25 21C9.25 20.5858 9.58579 20.25 10 20.25H14C14.4142 20.25 14.75 20.5858 14.75 21C14.75 21.4142 14.4142 21.75 14 21.75H10Z" fill="#6C6C72"/>
</svg>
