<svg width="24" height="24" viewBox="0 0 24 24" fill="none" xmlns="http://www.w3.org/2000/svg">
<path fill-rule="evenodd" clip-rule="evenodd" d="M11.5 3.75C9.98122 3.75 8.75 4.98122 8.75 6.5C8.75 8.01878 9.98122 9.25 11.5 9.25C12.8576 9.25 13.9854 8.26623 14.2095 6.97267C14.2115 6.91813 14.2193 6.86508 14.2323 6.81411C14.244 6.71103 14.25 6.60622 14.25 6.5C14.25 4.98122 13.0188 3.75 11.5 3.75ZM15.736 6.15254C15.5592 3.96785 13.7302 2.25 11.5 2.25C9.15279 2.25 7.25 4.15279 7.25 6.5C7.25 6.78509 7.27807 7.06362 7.3316 7.33298C5.67584 8.40691 4.5191 10.1881 4.29113 12.25H4C3.30964 12.25 2.75 11.6904 2.75 11C2.75 10.5383 2.99996 10.134 3.37554 9.91677C3.73409 9.70936 3.85661 9.25057 3.6492 8.89202C3.4418 8.53347 2.983 8.41095 2.62446 8.61836C1.80444 9.09272 1.25 9.98117 1.25 11C1.25 12.5188 2.48122 13.75 4 13.75H4.29117C4.46323 15.3051 5.16393 16.7017 6.20828 17.7542C6.22406 17.7701 6.23773 17.7839 6.24992 17.7962C6.24993 17.8065 6.24993 17.8176 6.24993 17.8298L6.24993 20.2202C6.2499 20.3424 6.24987 20.4748 6.25923 20.5895C6.26983 20.7192 6.29607 20.8907 6.38617 21.0675C6.50601 21.3027 6.69724 21.4939 6.93244 21.6138C7.10927 21.7039 7.2807 21.7301 7.41046 21.7407C7.5251 21.7501 7.65754 21.75 7.7797 21.75H9.72016C9.84232 21.75 9.97476 21.7501 10.0894 21.7407C10.2192 21.7301 10.3906 21.7039 10.5674 21.6138C10.8026 21.4939 10.9938 21.3027 11.1137 21.0675C11.2038 20.8907 11.23 20.7192 11.2406 20.5895C11.25 20.4748 11.25 20.3424 11.2499 20.2202L11.2499 19.8C11.2499 19.7824 11.2499 19.7657 11.2499 19.75C11.2657 19.75 11.2823 19.75 11.2999 19.75H12.6999C12.7176 19.75 12.7342 19.75 12.7499 19.75C12.7499 19.7657 12.7499 19.7824 12.7499 19.8L12.7499 20.2202C12.7499 20.3424 12.7499 20.4748 12.7592 20.5895C12.7698 20.7192 12.7961 20.8907 12.8862 21.0675C13.006 21.3027 13.1972 21.4939 13.4324 21.6138C13.6093 21.7039 13.7807 21.7301 13.9105 21.7407C14.0251 21.7501 14.1575 21.75 14.2797 21.75H16.2202C16.3424 21.75 16.4748 21.7501 16.5895 21.7407C16.7192 21.7301 16.8907 21.7039 17.0675 21.6138C17.3027 21.4939 17.4939 21.3027 17.6138 21.0675C17.7039 20.8907 17.7301 20.7192 17.7407 20.5895C17.7501 20.4748 17.75 20.3424 17.75 20.2202L17.75 19.2243C17.75 19.2033 17.75 19.1844 17.75 19.167C17.7762 19.1547 17.8055 19.1411 17.8395 19.1253C18.9448 18.6121 19.8871 17.8093 20.5696 16.8144C20.5863 16.79 20.6009 16.7689 20.6139 16.75C20.6275 16.75 20.6424 16.75 20.6587 16.75L21.2202 16.75C21.3424 16.75 21.4748 16.7501 21.5895 16.7407C21.7192 16.7301 21.8907 16.7039 22.0675 16.6138C22.3027 16.4939 22.4939 16.3027 22.6138 16.0675C22.7039 15.8907 22.7301 15.7192 22.7407 15.5895C22.7501 15.4748 22.75 15.3424 22.75 15.2202V11.7665C22.75 11.6502 22.7501 11.5241 22.7415 11.4148C22.7319 11.2912 22.7082 11.1278 22.6262 10.9576C22.5033 10.7025 22.2975 10.4967 22.0424 10.3738C21.8722 10.2918 21.7088 10.2681 21.5852 10.2585C21.4759 10.2499 21.3498 10.25 21.2335 10.25L21.2143 10.25C21.1971 10.25 21.1814 10.25 21.1667 10.25C21.1559 10.2266 21.1438 10.2006 21.1301 10.1708C20.7975 9.45128 20.3423 8.80075 19.7916 8.24578C19.7759 8.22987 19.7622 8.21609 19.75 8.20376C19.75 8.19353 19.75 8.18241 19.75 8.17018L19.75 7.03635C19.75 6.87762 19.7501 6.71296 19.7377 6.57381C19.7242 6.4227 19.6905 6.21088 19.5626 6.00447C19.3984 5.73948 19.1411 5.5454 18.8412 5.46032C18.6076 5.39404 18.3946 5.41979 18.2456 5.44835C18.1084 5.47465 17.9501 5.51991 17.7975 5.56355L15.736 6.15254ZM15.5655 7.74263C15.034 9.48359 13.4149 10.75 11.5 10.75C9.98396 10.75 8.65332 9.95621 7.90104 8.76157C6.59585 9.71749 5.74993 11.2604 5.74993 13C5.74993 14.4426 6.33076 15.748 7.27307 16.6977C7.28011 16.7048 7.28777 16.7124 7.29595 16.7206C7.37041 16.7949 7.48777 16.9121 7.56751 17.043C7.63747 17.1579 7.68449 17.272 7.71573 17.4028C7.75122 17.5514 7.75048 17.7066 7.75002 17.802C7.74997 17.812 7.74993 17.8213 7.74993 17.8298V20.2C7.74993 20.2176 7.74993 20.2343 7.74994 20.25C7.76568 20.25 7.78229 20.25 7.79993 20.25H9.69993C9.71757 20.25 9.73418 20.25 9.74992 20.25C9.74993 20.2343 9.74993 20.2176 9.74993 20.2L9.74993 19.7798C9.7499 19.6576 9.74987 19.5252 9.75923 19.4105C9.76983 19.2808 9.79607 19.1093 9.88617 18.9325C10.006 18.6973 10.1972 18.5061 10.4324 18.3862C10.6093 18.2961 10.7807 18.2699 10.9105 18.2593C11.0251 18.2499 11.1575 18.25 11.2797 18.25H12.7202C12.8423 18.25 12.9748 18.2499 13.0894 18.2593C13.2192 18.2699 13.3906 18.2961 13.5674 18.3862C13.8026 18.5061 13.9938 18.6973 14.1137 18.9325C14.2038 19.1093 14.23 19.2808 14.2406 19.4105C14.25 19.5252 14.25 19.6576 14.2499 19.7798L14.2499 20.2C14.2499 20.2176 14.2499 20.2343 14.2499 20.25C14.2657 20.25 14.2823 20.25 14.2999 20.25H16.2C16.2176 20.25 16.2343 20.25 16.25 20.25C16.25 20.2343 16.25 20.2176 16.25 20.2V19.2243C16.25 19.2109 16.2499 19.1964 16.2498 19.1808C16.2488 19.0353 16.2471 18.8003 16.3219 18.5894C16.3876 18.4041 16.4845 18.2523 16.6249 18.1147C16.7326 18.0091 16.8489 17.942 16.9302 17.8988C17.008 17.8575 17.1021 17.8138 17.1945 17.771L17.2079 17.7648C18.067 17.3659 18.801 16.7409 19.3327 15.9659C19.34 15.9553 19.3478 15.9437 19.3561 15.9314C19.4312 15.8205 19.5489 15.6468 19.6974 15.527C19.8276 15.422 19.9634 15.3505 20.1237 15.3025C20.3059 15.248 20.5021 15.2491 20.623 15.2499C20.6358 15.2499 20.6478 15.25 20.6587 15.25H21.2C21.2176 15.25 21.2343 15.25 21.25 15.25C21.25 15.2343 21.25 15.2176 21.25 15.2V11.7857C21.25 11.7733 21.25 11.7614 21.25 11.75C21.2386 11.75 21.2267 11.75 21.2143 11.75C21.2014 11.75 21.1875 11.7501 21.1726 11.7502C21.0336 11.7511 20.8095 11.7526 20.6075 11.6845C20.4076 11.6171 20.2442 11.5126 20.0991 11.3594C20.0002 11.2549 19.9367 11.1435 19.8959 11.0657C19.8568 10.9913 19.8153 10.9014 19.7745 10.8131L19.7685 10.8001C19.5101 10.2412 19.156 9.73479 18.7269 9.3023C18.7198 9.2952 18.7122 9.28756 18.704 9.27939C18.6295 9.20508 18.5122 9.08793 18.4324 8.957C18.3625 8.84213 18.3154 8.72797 18.2842 8.59717C18.2487 8.44859 18.2495 8.2934 18.2499 8.19799C18.25 8.18804 18.25 8.17875 18.25 8.17018V7.06058C18.25 7.03726 18.25 7.01522 18.25 6.99432C18.2299 7.00004 18.2087 7.0061 18.1863 7.0125L15.8137 7.69036C15.8111 7.69111 15.8083 7.69192 15.8053 7.69279C15.7748 7.70153 15.7248 7.71591 15.6719 7.72636C15.6366 7.73331 15.6011 7.73874 15.5655 7.74263ZM18.5514 6.91783C18.5513 6.91786 18.5504 6.91797 18.5487 6.9181L18.5514 6.91783ZM18.2412 6.68618C18.2409 6.68446 18.2407 6.68354 18.2407 6.68351L18.2412 6.68618ZM9.74426 20.4802C9.74425 20.4802 9.74431 20.4797 9.74444 20.4789L9.74426 20.4802ZM6.3153 17.8645C6.31528 17.8644 6.31497 17.8641 6.31439 17.8634L6.3153 17.8645Z" fill="#6C6C72"/>
</svg>
