<svg width="24" height="24" viewBox="0 0 24 24" fill="none" xmlns="http://www.w3.org/2000/svg">
<path fill-rule="evenodd" clip-rule="evenodd" d="M6.74203 1.25008C6.76148 1.25012 6.78082 1.25016 6.80004 1.25016H17.2C17.2192 1.25016 17.2386 1.25012 17.258 1.25008C17.4916 1.2496 17.7412 1.24908 17.9806 1.31744C18.1893 1.37703 18.385 1.4749 18.5579 1.60607C18.7562 1.75654 18.9056 1.9566 19.0453 2.14371C19.0569 2.15929 19.0685 2.17479 19.08 2.19016L20.6576 4.29364C20.6685 4.30809 20.6793 4.32249 20.69 4.33684L20.96 4.69683C20.9718 4.71256 20.9835 4.72808 20.995 4.74343C21.1987 5.01472 21.3591 5.22841 21.4757 5.46956C21.5786 5.68227 21.6536 5.90735 21.6989 6.13923C21.7503 6.40213 21.7502 6.66933 21.7501 7.00857C21.75 7.02776 21.75 7.04717 21.75 7.06683V18.8306C21.75 19.3648 21.7501 19.8106 21.7203 20.1748C21.6893 20.5547 21.6221 20.9114 21.4503 21.2486C21.1867 21.7661 20.766 22.1868 20.2485 22.4504C19.9112 22.6223 19.5546 22.6894 19.1747 22.7204C18.8105 22.7502 18.3646 22.7502 17.8305 22.7502L6.16958 22.7502C5.63544 22.7502 5.18959 22.7502 4.82537 22.7204C4.44548 22.6894 4.08882 22.6223 3.75156 22.4504C3.23412 22.1868 2.81342 21.7661 2.54977 21.2486C2.37792 20.9114 2.31081 20.5547 2.27977 20.1748C2.25002 19.8106 2.25002 19.3647 2.25004 18.8306L2.25004 7.06683C2.25004 7.04716 2.25003 7.02774 2.25002 7.00855C2.24986 6.66932 2.24973 6.40212 2.30112 6.13923C2.34645 5.90734 2.42148 5.68226 2.52435 5.46956C2.64097 5.22841 2.80139 5.01473 3.00506 4.74343C3.01658 4.72809 3.02824 4.71256 3.04004 4.69683L3.30747 4.34024C3.31909 4.32475 3.33076 4.30919 3.34247 4.29358C3.34832 4.28579 3.35417 4.27798 3.36004 4.27016L4.92004 2.19016C4.93156 2.17479 4.94314 2.15929 4.95478 2.14371C5.0945 1.9566 5.2439 1.75654 5.4422 1.60607C5.61506 1.4749 5.81081 1.37703 6.01946 1.31744C6.25883 1.24908 6.5085 1.2496 6.74203 1.25008ZM6.12004 3.09016L4.56004 5.17016C4.53888 5.19837 4.51894 5.22497 4.50015 5.2501C4.53153 5.25015 4.56478 5.25016 4.60004 5.25016H19.4C19.4353 5.25016 19.4685 5.25015 19.4999 5.2501C19.4811 5.22497 19.4612 5.19837 19.44 5.17016L17.88 3.09016C17.7874 2.96669 17.7351 2.8973 17.6929 2.84688C17.6668 2.81567 17.6544 2.80388 17.651 2.80089M17.5689 2.75983C17.5644 2.75891 17.5476 2.75607 17.5069 2.7539C17.4413 2.75041 17.3544 2.75016 17.2 2.75016H6.80004C6.6457 2.75016 6.55877 2.75041 6.49313 2.7539C6.4525 2.75607 6.43563 2.7589 6.4312 2.75983M6.34905 2.8009C6.34564 2.80391 6.33325 2.81571 6.30717 2.84688C6.26499 2.8973 6.21264 2.96669 6.12004 3.09016M17.5701 2.76013C17.5701 2.76013 17.5696 2.76003 17.5689 2.75983L17.5701 2.76013ZM20.248 6.70929C20.1798 6.72193 20.1174 6.72895 20.0645 6.73377C19.8841 6.75022 19.6613 6.75019 19.4293 6.75016L4.60004 6.75016C4.59027 6.75016 4.58051 6.75016 4.57077 6.75016C4.33872 6.75019 4.11596 6.75022 3.93559 6.73377C3.8827 6.72895 3.82023 6.72193 3.75203 6.70929C3.75047 6.7962 3.75004 6.91036 3.75004 7.06683L3.75004 18.8002C3.75004 19.3726 3.75062 19.7568 3.77479 20.0527C3.79825 20.3398 3.84013 20.4771 3.88628 20.5676C4.00612 20.8028 4.19734 20.9941 4.43255 21.1139C4.52311 21.1601 4.66039 21.2019 4.94751 21.2254C5.24339 21.2496 5.62761 21.2502 6.20004 21.2502L17.8 21.2502C18.3725 21.2502 18.7567 21.2496 19.0526 21.2254C19.3397 21.2019 19.477 21.1601 19.5675 21.1139C19.8027 20.9941 19.994 20.8029 20.1138 20.5676C20.1599 20.4771 20.2018 20.3398 20.2253 20.0527C20.2495 19.7568 20.25 19.3726 20.25 18.8002V7.06683C20.25 6.91036 20.2496 6.7962 20.248 6.70929ZM6.35006 2.80007C6.35005 2.8001 6.34969 2.80041 6.34905 2.8009L6.35006 2.80007ZM8.00004 9.25016C8.41425 9.25016 8.75004 9.58595 8.75004 10.0002C8.75004 10.8621 9.09245 11.6888 9.70194 12.2983C10.3114 12.9078 11.1381 13.2502 12 13.2502C12.862 13.2502 13.6886 12.9078 14.2981 12.2983C14.9076 11.6888 15.25 10.8621 15.25 10.0002C15.25 9.58595 15.5858 9.25016 16 9.25016C16.4142 9.25016 16.75 9.58595 16.75 10.0002C16.75 11.2599 16.2496 12.4681 15.3588 13.3589C14.468 14.2497 13.2598 14.7502 12 14.7502C10.7403 14.7502 9.53208 14.2497 8.64128 13.3589C7.75048 12.4681 7.25004 11.2599 7.25004 10.0002C7.25004 9.58595 7.58582 9.25016 8.00004 9.25016Z" fill="#6C6C72"/>
</svg>
